<svg xmlns="http://www.w3.org/2000/svg" width="18.248" height="17.546" viewBox="0 0 18.248 17.546">
  <path id="Icon_ionic-ios-heart-empty" data-name="Icon ionic-ios-heart-empty" d="M16.71,3.938h-.044A4.991,4.991,0,0,0,12.5,6.218,4.991,4.991,0,0,0,8.332,3.938H8.288A4.959,4.959,0,0,0,3.375,8.894a10.678,10.678,0,0,0,2.1,5.821A36.744,36.744,0,0,0,12.5,21.483a36.744,36.744,0,0,0,7.027-6.768,10.678,10.678,0,0,0,2.1-5.821A4.959,4.959,0,0,0,16.71,3.938Zm1.825,10.054A33.644,33.644,0,0,1,12.5,19.939a33.694,33.694,0,0,1-6.036-5.952A9.463,9.463,0,0,1,4.6,8.894,3.722,3.722,0,0,1,8.3,5.17h.039a3.678,3.678,0,0,1,1.8.474,3.833,3.833,0,0,1,1.333,1.25,1.232,1.232,0,0,0,2.062,0,3.871,3.871,0,0,1,1.333-1.25,3.678,3.678,0,0,1,1.8-.474h.039A3.722,3.722,0,0,1,20.4,8.894,9.583,9.583,0,0,1,18.535,13.991Z" transform="translate(-3.375 -3.938)" fill="#f66c13"/>
</svg>
