<svg xmlns="http://www.w3.org/2000/svg" width="17.546" height="17.546" viewBox="0 0 17.546 17.546">
  <path id="Icon_awesome-info-circle" data-name="Icon awesome-info-circle" d="M9.335.563a8.773,8.773,0,1,0,8.773,8.773A8.774,8.774,0,0,0,9.335.563Zm0,3.891A1.486,1.486,0,1,1,7.85,5.939,1.486,1.486,0,0,1,9.335,4.454Zm1.981,8.985a.425.425,0,0,1-.424.424H7.779a.425.425,0,0,1-.424-.424V12.59a.425.425,0,0,1,.424-.424H8.2V9.9H7.779a.425.425,0,0,1-.424-.424V8.628A.425.425,0,0,1,7.779,8.2h2.264a.425.425,0,0,1,.424.424v3.537h.424a.425.425,0,0,1,.424.424Z" transform="translate(-0.563 -0.563)" fill="#f26d16"/>
</svg>
