<svg id="logo" xmlns="http://www.w3.org/2000/svg" xmlns:xlink="http://www.w3.org/1999/xlink" width="250.549" height="64.267" viewBox="0 0 250.549 64.267">
  <defs>
    <clipPath id="clip-path">
      <rect id="Rectangle_5" data-name="Rectangle 5" width="250.549" height="64.267" fill="none"/>
    </clipPath>
  </defs>
  <g id="Group_3" data-name="Group 3" clip-path="url(#clip-path)">
    <path id="Path_1" data-name="Path 1" d="M115.962,129.805a.816.816,0,1,0,.816-.817.809.809,0,0,0-.816.817" transform="translate(-89.767 -99.851)" fill="#f66c13" fill-rule="evenodd"/>
    <path id="Path_2" data-name="Path 2" d="M77,153.943a6.65,6.65,0,1,0,6.653,6.65A6.654,6.654,0,0,0,77,153.943" transform="translate(-54.457 -119.169)" fill="#f66c13" fill-rule="evenodd"/>
    <path id="Path_3" data-name="Path 3" d="M63.135,96.676a6.653,6.653,0,1,0-6.653,6.65,6.654,6.654,0,0,0,6.653-6.65" transform="translate(-38.572 -69.69)" fill="#f66c13" fill-rule="evenodd"/>
    <path id="Path_4" data-name="Path 4" d="M112.428,60.867a6.65,6.65,0,1,0-6.653-6.65,6.658,6.658,0,0,0,6.653,6.65" transform="translate(-81.881 -36.822)" fill="#f66c13" fill-rule="evenodd"/>
    <path id="Path_5" data-name="Path 5" d="M147.2,129.805a.816.816,0,1,0,.816-.817.809.809,0,0,0-.816.817" transform="translate(-113.947 -99.851)" fill="#f66c13" fill-rule="evenodd"/>
    <path id="Path_6" data-name="Path 6" d="M130.726,126.24a1.855,1.855,0,1,0-1.855,1.857,1.852,1.852,0,0,0,1.855-1.857" transform="translate(-98.324 -96.286)" fill="#f66c13" fill-rule="evenodd"/>
    <path id="Path_7" data-name="Path 7" d="M131.616,114.157a.816.816,0,1,0,1.632,0,.826.826,0,0,0-.816-.817.809.809,0,0,0-.816.817" transform="translate(-101.885 -87.738)" fill="#f66c13" fill-rule="evenodd"/>
    <path id="Path_8" data-name="Path 8" d="M132.433,144.588a.817.817,0,1,0,.816.817.808.808,0,0,0-.816-.817" transform="translate(-101.886 -111.927)" fill="#f66c13" fill-rule="evenodd"/>
    <path id="Path_9" data-name="Path 9" d="M57.866,55.054c-3.183-2.994-.632-9.073-.632-9.073l-.019-.011a30.674,30.674,0,1,0-6.667,8.041c.006,5.754,4.652,10.255,4.652,10.255l8.159-6.1s-2.3-.123-5.493-3.111M30.547,55.04A24.307,24.307,0,1,1,54.854,30.733,24.309,24.309,0,0,1,30.547,55.04m21.327-.409c0-.006,0,.006.006,0a19.123,19.123,0,0,0,3.259-2.012,7.256,7.256,0,0,0,1.3,2.863c0,.049-3.73,2.539-3.73,2.539a7.76,7.76,0,0,1-.833-3.389m2.873,6.928a13.191,13.191,0,0,1-1.662-2.605c.068,0,3.917-2.8,3.917-2.8a6.933,6.933,0,0,0,2.509,2c0,.043-4.764,3.4-4.764,3.4" fill="#f66c13" fill-rule="evenodd"/>
    <path id="Path_10" data-name="Path 10" d="M168.326,90.026a6.656,6.656,0,1,0,6.653,6.65,6.664,6.664,0,0,0-6.653-6.65" transform="translate(-125.153 -69.69)" fill="#f66c13" fill-rule="evenodd"/>
    <path id="Path_11" data-name="Path 11" d="M147.277,153.943a6.65,6.65,0,1,0,6.653,6.65,6.654,6.654,0,0,0-6.653-6.65" transform="translate(-108.858 -119.169)" fill="#f66c13" fill-rule="evenodd"/>
    <path id="Path_12" data-name="Path 12" d="M334.569,63.463q-6.291,0-9.585-3.5t-3.294-9.939a15.284,15.284,0,0,1,1.005-5.714,12.307,12.307,0,0,1,2.754-4.244,11.511,11.511,0,0,1,4.169-2.624,15.035,15.035,0,0,1,5.249-.893,16.846,16.846,0,0,1,2.978.242,19.473,19.473,0,0,1,2.345.558,11.574,11.574,0,0,1,1.675.651q.67.335.968.521l-1.675,4.69a14.068,14.068,0,0,0-2.773-1.08,13.239,13.239,0,0,0-3.592-.447,7.937,7.937,0,0,0-2.624.447,5.938,5.938,0,0,0-2.271,1.433,7.137,7.137,0,0,0-1.582,2.55,10.7,10.7,0,0,0-.6,3.8,13.554,13.554,0,0,0,.391,3.331,7.064,7.064,0,0,0,1.266,2.661,6.064,6.064,0,0,0,2.289,1.768,8.142,8.142,0,0,0,3.425.651,15.554,15.554,0,0,0,2.27-.149,16.675,16.675,0,0,0,1.787-.354,9.331,9.331,0,0,0,1.377-.465q.6-.26,1.08-.484l1.6,4.653a13.57,13.57,0,0,1-3.462,1.34,20.2,20.2,0,0,1-5.174.6" transform="translate(-249.022 -28.294)" fill="#262626"/>
    <path id="Path_13" data-name="Path 13" d="M435.922,30.432a3.044,3.044,0,0,1-.986,2.4,3.532,3.532,0,0,1-4.653,0,3.042,3.042,0,0,1-.986-2.4,3.044,3.044,0,0,1,.986-2.4,3.531,3.531,0,0,1,4.653,0,3.046,3.046,0,0,1,.986,2.4M435.4,55.67h-5.546V36.09H435.4Z" transform="translate(-332.322 -21.022)" fill="#262626"/>
    <path id="Path_14" data-name="Path 14" d="M479.391,65.846a31,31,0,0,1,3.648-.763,29.991,29.991,0,0,1,4.69-.354,11.437,11.437,0,0,1,4.151.651,6.243,6.243,0,0,1,2.624,1.843,7.192,7.192,0,0,1,1.377,2.829,15.071,15.071,0,0,1,.41,3.648V84.755h-5.546V74.37a7.48,7.48,0,0,0-.707-3.8,2.886,2.886,0,0,0-2.643-1.117q-.6,0-1.266.056t-1.191.131V84.755h-5.546Z" transform="translate(-371.101 -50.107)" fill="#262626"/>
    <path id="Path_15" data-name="Path 15" d="M572.33,74.859a11.969,11.969,0,0,1,.8-4.56,9.772,9.772,0,0,1,2.1-3.257,8.743,8.743,0,0,1,3-1.973,9.384,9.384,0,0,1,3.481-.67,8.653,8.653,0,0,1,6.589,2.55q2.419,2.55,2.419,7.5,0,.484-.037,1.061t-.074,1.024H578.025a3.683,3.683,0,0,0,1.6,2.717,6.433,6.433,0,0,0,3.8,1,16.029,16.029,0,0,0,3-.279,11.283,11.283,0,0,0,2.4-.689l.745,4.5a7.669,7.669,0,0,1-1.191.447,15.558,15.558,0,0,1-1.656.391q-.913.168-1.954.279a19.532,19.532,0,0,1-2.084.112,12.339,12.339,0,0,1-4.6-.782,8.952,8.952,0,0,1-3.239-2.14,8.489,8.489,0,0,1-1.9-3.22,12.743,12.743,0,0,1-.614-4.02m13.029-2.122a5.757,5.757,0,0,0-.242-1.377,3.449,3.449,0,0,0-.633-1.191,3.381,3.381,0,0,0-1.08-.856,3.517,3.517,0,0,0-1.619-.335,3.726,3.726,0,0,0-1.6.316,3.316,3.316,0,0,0-1.117.838,3.746,3.746,0,0,0-.688,1.21,7.912,7.912,0,0,0-.354,1.4Z" transform="translate(-443.046 -49.852)" fill="#262626"/>
    <path id="Path_16" data-name="Path 16" d="M673.115,64.983q-1.541-3.249-3.038-6.746t-2.847-6.917q-1.349-3.421-2.479-6.55T662.8,39.187h6.4q.724,2.24,1.611,4.823t1.807,5.149q.92,2.566,1.762,4.916t1.614,4.059q.727-1.7,1.589-4.048t1.782-4.915q.92-2.565,1.805-5.149t1.614-4.835h6.182q-.867,2.468-1.995,5.59T684.5,51.324q-1.34,3.425-2.828,6.924t-3.022,6.735Z" transform="translate(-513.078 -30.335)" fill="#262626"/>
    <path id="Path_17" data-name="Path 17" d="M778.478,74.859a11.969,11.969,0,0,1,.8-4.56,9.771,9.771,0,0,1,2.1-3.257,8.743,8.743,0,0,1,3-1.973,9.384,9.384,0,0,1,3.48-.67,8.653,8.653,0,0,1,6.589,2.55q2.419,2.55,2.419,7.5,0,.484-.037,1.061t-.074,1.024H784.173a3.683,3.683,0,0,0,1.6,2.717,6.433,6.433,0,0,0,3.8,1,16.028,16.028,0,0,0,3-.279,11.28,11.28,0,0,0,2.4-.689l.745,4.5a7.669,7.669,0,0,1-1.191.447,15.56,15.56,0,0,1-1.656.391q-.913.168-1.954.279a19.532,19.532,0,0,1-2.084.112,12.339,12.339,0,0,1-4.6-.782,8.951,8.951,0,0,1-3.239-2.14,8.488,8.488,0,0,1-1.9-3.22,12.741,12.741,0,0,1-.614-4.02m13.029-2.122a5.757,5.757,0,0,0-.242-1.377,3.447,3.447,0,0,0-.633-1.191,3.381,3.381,0,0,0-1.08-.856,3.517,3.517,0,0,0-1.619-.335,3.726,3.726,0,0,0-1.6.316,3.315,3.315,0,0,0-1.117.838,3.744,3.744,0,0,0-.688,1.21,7.907,7.907,0,0,0-.354,1.4Z" transform="translate(-602.627 -49.852)" fill="#262626"/>
    <path id="Path_18" data-name="Path 18" d="M890.635,70.216q-.745-.186-1.75-.391a10.832,10.832,0,0,0-2.159-.2,10.081,10.081,0,0,0-1.247.093,7.393,7.393,0,0,0-1.1.2V84.882h-5.546V66.345a33.407,33.407,0,0,1,3.518-.986,20.268,20.268,0,0,1,4.523-.465q.447,0,1.08.056t1.265.149q.632.094,1.266.223a6.007,6.007,0,0,1,1.079.316Z" transform="translate(-680.315 -50.234)" fill="#262626"/>
    <path id="Path_19" data-name="Path 19" d="M950.042,80.516a5.531,5.531,0,0,0,2.159-.3,1.15,1.15,0,0,0,.633-1.154,1.414,1.414,0,0,0-.819-1.172,15.586,15.586,0,0,0-2.494-1.136,25.285,25.285,0,0,1-2.364-1,6.942,6.942,0,0,1-1.806-1.247,5.043,5.043,0,0,1-1.154-1.731,6.4,6.4,0,0,1-.409-2.42A5.233,5.233,0,0,1,945.835,66a8.908,8.908,0,0,1,5.621-1.6,18.059,18.059,0,0,1,3.425.316,16.007,16.007,0,0,1,2.606.689l-.968,4.318a20.465,20.465,0,0,0-2.1-.6,11.46,11.46,0,0,0-2.55-.26q-2.606,0-2.606,1.452a1.5,1.5,0,0,0,.112.6,1.263,1.263,0,0,0,.447.5,6.23,6.23,0,0,0,.912.524q.576.282,1.47.619a22.735,22.735,0,0,1,3.015,1.333,7.213,7.213,0,0,1,1.88,1.418,4.387,4.387,0,0,1,.968,1.69,7.5,7.5,0,0,1,.279,2.154,4.963,4.963,0,0,1-2.178,4.383A10.862,10.862,0,0,1,950,85.02a17.708,17.708,0,0,1-4.336-.447,17.483,17.483,0,0,1-2.4-.745l.93-4.5a18.174,18.174,0,0,0,2.9.875,14.115,14.115,0,0,0,2.941.316" transform="translate(-730.192 -49.851)" fill="#262626"/>
    <path id="Path_20" data-name="Path 20" d="M1024.176,74.859a11.965,11.965,0,0,1,.8-4.56,9.764,9.764,0,0,1,2.1-3.257,8.743,8.743,0,0,1,3-1.973,9.382,9.382,0,0,1,3.48-.67,8.652,8.652,0,0,1,6.589,2.55q2.419,2.55,2.419,7.5,0,.484-.037,1.061c-.025.385-.05.726-.074,1.024h-12.582a3.682,3.682,0,0,0,1.6,2.717,6.433,6.433,0,0,0,3.8,1,16.027,16.027,0,0,0,3-.279,11.283,11.283,0,0,0,2.4-.689l.745,4.5a7.661,7.661,0,0,1-1.191.447,15.545,15.545,0,0,1-1.656.391q-.913.168-1.954.279a19.528,19.528,0,0,1-2.084.112,12.341,12.341,0,0,1-4.6-.782,8.953,8.953,0,0,1-3.239-2.14,8.489,8.489,0,0,1-1.9-3.22,12.743,12.743,0,0,1-.614-4.02m13.028-2.122a5.782,5.782,0,0,0-.242-1.377,3.449,3.449,0,0,0-.633-1.191,3.384,3.384,0,0,0-1.079-.856,3.519,3.519,0,0,0-1.619-.335,3.725,3.725,0,0,0-1.6.316,3.317,3.317,0,0,0-1.117.838,3.748,3.748,0,0,0-.689,1.21,7.932,7.932,0,0,0-.353,1.4Z" transform="translate(-792.824 -49.852)" fill="#262626"/>
    <path id="Path_21" data-name="Path 21" d="M350.394,199.633v-3.014q-.748-1.16-1.41-2.288t-1.247-2.212h1.236q.412.889.922,1.806t1.052,1.762q.531-.845,1.041-1.762t.932-1.806h1.171q-.585,1.085-1.247,2.207t-1.4,2.272v3.036Z" transform="translate(-269.187 -148.721)" fill="#262626"/>
    <path id="Path_22" data-name="Path 22" d="M383.594,195.277a4.662,4.662,0,0,1,.287-1.7,3.514,3.514,0,0,1,.781-1.231,3.228,3.228,0,0,1,1.149-.743,3.886,3.886,0,0,1,1.393-.249,3.77,3.77,0,0,1,1.371.249,3.2,3.2,0,0,1,1.133.743,3.563,3.563,0,0,1,.775,1.231,5.186,5.186,0,0,1,0,3.4,3.563,3.563,0,0,1-.775,1.231,3.2,3.2,0,0,1-1.133.743,3.775,3.775,0,0,1-1.371.249,3.89,3.89,0,0,1-1.393-.249,3.228,3.228,0,0,1-1.149-.743,3.514,3.514,0,0,1-.781-1.231,4.662,4.662,0,0,1-.287-1.7m1.106,0a4.167,4.167,0,0,0,.173,1.241,2.775,2.775,0,0,0,.493.949,2.163,2.163,0,0,0,.78.6,2.456,2.456,0,0,0,1.035.211,2.419,2.419,0,0,0,1.03-.211,2.171,2.171,0,0,0,.775-.6,2.784,2.784,0,0,0,.494-.949,4.523,4.523,0,0,0,0-2.483,2.784,2.784,0,0,0-.494-.949,2.171,2.171,0,0,0-.775-.6,2.419,2.419,0,0,0-1.03-.211,2.456,2.456,0,0,0-1.035.211,2.163,2.163,0,0,0-.78.6,2.775,2.775,0,0,0-.493.949,4.167,4.167,0,0,0-.173,1.241" transform="translate(-296.944 -148.127)" fill="#262626"/>
    <path id="Path_23" data-name="Path 23" d="M431.518,199.8a3.289,3.289,0,0,1-1.279-.228,2.389,2.389,0,0,1-.889-.623,2.546,2.546,0,0,1-.515-.938,3.937,3.937,0,0,1-.168-1.171V192.12h1.052v4.6a2.276,2.276,0,0,0,.5,1.637,1.74,1.74,0,0,0,1.3.51,2.06,2.06,0,0,0,.732-.125,1.463,1.463,0,0,0,.569-.385,1.773,1.773,0,0,0,.369-.667,3.208,3.208,0,0,0,.13-.97v-4.6h1.052v4.717a3.937,3.937,0,0,1-.168,1.171,2.506,2.506,0,0,1-.52.938,2.45,2.45,0,0,1-.889.623,3.25,3.25,0,0,1-1.274.228" transform="translate(-331.835 -148.722)" fill="#262626"/>
    <path id="Path_24" data-name="Path 24" d="M472.23,196.23q.173.217.439.569t.548.781q.282.428.558.895a9.091,9.091,0,0,1,.472.9H473.1q-.217-.412-.471-.835t-.515-.808q-.26-.385-.515-.721t-.461-.586q-.141.011-.287.011h-1.242v2.938h-1.052v-7.406a6,6,0,0,1,.992-.146q.548-.038,1-.038a4.1,4.1,0,0,1,2.412.6,2.048,2.048,0,0,1,.829,1.778,2.081,2.081,0,0,1-.4,1.279,2.335,2.335,0,0,1-1.165.792m-1.594-3.524q-.672,0-1.03.033v2.83h.748a7.976,7.976,0,0,0,.976-.054,2.218,2.218,0,0,0,.732-.206,1.1,1.1,0,0,0,.461-.428,1.437,1.437,0,0,0,.162-.732,1.4,1.4,0,0,0-.162-.7,1.205,1.205,0,0,0-.439-.444,1.918,1.918,0,0,0-.651-.228,4.653,4.653,0,0,0-.8-.065" transform="translate(-362.712 -148.462)" fill="#262626"/>
    <path id="Path_25" data-name="Path 25" d="M525.273,199.2a3.85,3.85,0,0,1-1.442-.26,3.067,3.067,0,0,1-1.117-.759,3.419,3.419,0,0,1-.721-1.231,5.088,5.088,0,0,1-.255-1.675,4.558,4.558,0,0,1,.287-1.675,3.628,3.628,0,0,1,.776-1.231,3.276,3.276,0,0,1,1.138-.759,3.7,3.7,0,0,1,1.388-.26,4.931,4.931,0,0,1,.84.065,5.149,5.149,0,0,1,.651.152,3.12,3.12,0,0,1,.45.173,2.6,2.6,0,0,1,.239.13l-.3.867a1.672,1.672,0,0,0-.282-.141q-.184-.076-.417-.152a3.745,3.745,0,0,0-.51-.125,3.2,3.2,0,0,0-.558-.049,2.681,2.681,0,0,0-1.073.206,2.217,2.217,0,0,0-.813.6,2.692,2.692,0,0,0-.515.949,4.1,4.1,0,0,0-.179,1.252,4.473,4.473,0,0,0,.157,1.225,2.688,2.688,0,0,0,.472.949,2.115,2.115,0,0,0,.786.613,2.61,2.61,0,0,0,1.1.217,4.036,4.036,0,0,0,1.2-.152,5.313,5.313,0,0,0,.716-.271l.271.867a1.523,1.523,0,0,1-.271.136,3.718,3.718,0,0,1-.488.157,6.216,6.216,0,0,1-1.529.184" transform="translate(-403.883 -148.127)" fill="#262626"/>
    <rect id="Rectangle_2" data-name="Rectangle 2" width="1.052" height="7.514" transform="translate(126.378 43.398)" fill="#262626"/>
    <path id="Path_26" data-name="Path 26" d="M584.152,199.633q-.238-.4-.548-.9t-.667-1.035q-.358-.537-.743-1.09t-.764-1.068q-.379-.515-.737-.971t-.661-.8v5.866H579v-7.514h.835q.51.542,1.09,1.263t1.149,1.485q.569.765,1.073,1.5t.851,1.312v-5.562h1.03v7.514Z" transform="translate(-448.211 -148.721)" fill="#262626"/>
    <path id="Path_27" data-name="Path 27" d="M620.57,199.634V192.12h4.586v.9h-3.535v2.234h3.144v.878h-3.144v2.6h3.806v.9Z" transform="translate(-480.389 -148.722)" fill="#262626"/>
    <path id="Path_28" data-name="Path 28" d="M657.268,198.593q-.108-.26-.287-.661t-.385-.867q-.206-.466-.439-.96t-.439-.932q-.206-.439-.385-.786t-.288-.531q-.119,1.279-.2,2.77t-.13,3.009h-1.03q.043-.976.1-1.968t.125-1.952q.07-.96.152-1.87t.179-1.724h.922q.293.477.629,1.128t.672,1.361q.336.71.651,1.42t.575,1.3q.26-.586.575-1.3t.651-1.42q.336-.71.672-1.361t.629-1.128h.922q.368,3.632.553,7.514h-1.03q-.054-1.518-.13-3.009t-.2-2.77q-.108.184-.287.531t-.385.786q-.206.439-.439.932t-.439.96l-.385.867q-.179.4-.288.661Z" transform="translate(-506.028 -148.722)" fill="#262626"/>
    <path id="Path_29" data-name="Path 29" d="M705.156,199.634q-.184-.488-.347-.96t-.336-.96h-3.4l-.683,1.919h-1.1q.434-1.193.813-2.206t.743-1.925q.363-.911.721-1.74t.748-1.643h.965q.391.813.748,1.643t.721,1.74q.363.911.743,1.925t.813,2.206Zm-.986-2.787q-.347-.943-.689-1.827t-.71-1.7q-.379.813-.721,1.7t-.678,1.827Z" transform="translate(-541.327 -148.722)" fill="#262626"/>
    <path id="Path_30" data-name="Path 30" d="M740.829,192.119v.911h-2.364v6.6h-1.051v-6.6H735.05v-.911Z" transform="translate(-569.009 -148.721)" fill="#262626"/>
    <rect id="Rectangle_3" data-name="Rectangle 3" width="1.052" height="7.514" transform="translate(174.422 43.398)" fill="#262626"/>
    <path id="Path_31" data-name="Path 31" d="M793.881,199.2a3.85,3.85,0,0,1-1.442-.26,3.067,3.067,0,0,1-1.117-.759,3.419,3.419,0,0,1-.721-1.231,5.09,5.09,0,0,1-.255-1.675,4.56,4.56,0,0,1,.287-1.675,3.629,3.629,0,0,1,.776-1.231,3.277,3.277,0,0,1,1.138-.759,3.7,3.7,0,0,1,1.388-.26,4.931,4.931,0,0,1,.84.065,5.151,5.151,0,0,1,.651.152,3.117,3.117,0,0,1,.45.173,2.592,2.592,0,0,1,.239.13l-.3.867a1.674,1.674,0,0,0-.282-.141q-.184-.076-.417-.152a3.744,3.744,0,0,0-.51-.125,3.2,3.2,0,0,0-.558-.049,2.68,2.68,0,0,0-1.073.206,2.218,2.218,0,0,0-.813.6,2.693,2.693,0,0,0-.515.949,4.1,4.1,0,0,0-.179,1.252,4.473,4.473,0,0,0,.157,1.225,2.687,2.687,0,0,0,.472.949,2.116,2.116,0,0,0,.786.613,2.61,2.61,0,0,0,1.1.217,4.037,4.037,0,0,0,1.2-.152,5.319,5.319,0,0,0,.716-.271l.271.867a1.531,1.531,0,0,1-.271.136,3.724,3.724,0,0,1-.488.157,6.218,6.218,0,0,1-1.529.184" transform="translate(-611.815 -148.127)" fill="#262626"/>
    <path id="Path_32" data-name="Path 32" d="M848.4,199.8a3.29,3.29,0,0,1-1.279-.228,2.388,2.388,0,0,1-.889-.623,2.546,2.546,0,0,1-.515-.938,3.939,3.939,0,0,1-.168-1.171V192.12H846.6v4.6a2.276,2.276,0,0,0,.5,1.637,1.74,1.74,0,0,0,1.3.51,2.06,2.06,0,0,0,.732-.125,1.463,1.463,0,0,0,.569-.385,1.774,1.774,0,0,0,.369-.667,3.208,3.208,0,0,0,.13-.97v-4.6h1.052v4.717a3.935,3.935,0,0,1-.168,1.171,2.5,2.5,0,0,1-.52.938,2.451,2.451,0,0,1-.889.623,3.25,3.25,0,0,1-1.274.228" transform="translate(-654.545 -148.722)" fill="#262626"/>
    <path id="Path_33" data-name="Path 33" d="M890.584,199.633q-.239-.4-.547-.9t-.667-1.035q-.358-.537-.743-1.09t-.764-1.068q-.379-.515-.737-.971t-.661-.8v5.866h-1.03v-7.514h.835q.51.542,1.09,1.263t1.149,1.485q.569.765,1.073,1.5t.851,1.312v-5.562h1.03v7.514Z" transform="translate(-685.423 -148.721)" fill="#262626"/>
    <rect id="Rectangle_4" data-name="Rectangle 4" width="1.052" height="7.514" transform="translate(209.401 43.398)" fill="#262626"/>
    <path id="Path_34" data-name="Path 34" d="M949.787,192.119q-.412,1.193-.786,2.206t-.732,1.925q-.358.911-.71,1.74t-.721,1.643h-.987q-.369-.813-.721-1.643t-.716-1.74q-.363-.911-.743-1.925t-.781-2.206h1.16q.585,1.713,1.149,3.3t1.16,2.971q.6-1.377,1.16-2.965t1.138-3.3Z" transform="translate(-729.901 -148.721)" fill="#262626"/>
    <path id="Path_35" data-name="Path 35" d="M984.651,199.634V192.12h4.586v.9H985.7v2.234h3.144v.878H985.7v2.6h3.806v.9Z" transform="translate(-762.227 -148.722)" fill="#262626"/>
    <path id="Path_36" data-name="Path 36" d="M1022.357,196.23q.173.217.439.569t.548.781q.282.428.558.895a9.1,9.1,0,0,1,.472.9h-1.149q-.217-.412-.471-.835t-.515-.808q-.26-.385-.515-.721t-.461-.586q-.141.011-.287.011h-1.242v2.938h-1.052v-7.406a6,6,0,0,1,.992-.146q.547-.038,1-.038a4.1,4.1,0,0,1,2.413.6,2.047,2.047,0,0,1,.829,1.778,2.081,2.081,0,0,1-.4,1.279,2.334,2.334,0,0,1-1.165.792m-1.594-3.524q-.672,0-1.03.033v2.83h.748a7.976,7.976,0,0,0,.976-.054,2.219,2.219,0,0,0,.732-.206,1.1,1.1,0,0,0,.461-.428,1.436,1.436,0,0,0,.162-.732,1.4,1.4,0,0,0-.162-.7,1.2,1.2,0,0,0-.439-.444,1.917,1.917,0,0,0-.65-.228,4.654,4.654,0,0,0-.8-.065" transform="translate(-788.571 -148.462)" fill="#262626"/>
    <path id="Path_37" data-name="Path 37" d="M1055.275,198.291q1.648,0,1.648-1.127a1.128,1.128,0,0,0-.146-.591,1.412,1.412,0,0,0-.4-.423,2.767,2.767,0,0,0-.569-.309q-.32-.13-.678-.26a6.885,6.885,0,0,1-.781-.32,2.723,2.723,0,0,1-.64-.423,1.8,1.8,0,0,1-.429-.58,1.912,1.912,0,0,1-.157-.813,1.884,1.884,0,0,1,.672-1.54,2.837,2.837,0,0,1,1.854-.553,4.894,4.894,0,0,1,1.241.146,2.848,2.848,0,0,1,.819.32l-.336.857a2.977,2.977,0,0,0-.678-.277,3.639,3.639,0,0,0-1.046-.136,2.3,2.3,0,0,0-.564.065,1.445,1.445,0,0,0-.455.195.969.969,0,0,0-.309.331.941.941,0,0,0-.114.472,1,1,0,0,0,.119.509,1.172,1.172,0,0,0,.336.363,2.851,2.851,0,0,0,.5.288q.287.13.634.26.488.195.894.39a2.91,2.91,0,0,1,.7.466,1.866,1.866,0,0,1,.461.645,2.272,2.272,0,0,1,.163.906,1.772,1.772,0,0,1-.721,1.518,3.377,3.377,0,0,1-2.033.532,5.264,5.264,0,0,1-.819-.06,6.007,6.007,0,0,1-.667-.141,3.831,3.831,0,0,1-.5-.173c-.141-.062-.251-.114-.33-.157l.314-.867a4.75,4.75,0,0,0,.759.315,3.9,3.9,0,0,0,1.247.173" transform="translate(-815.102 -148.127)" fill="#262626"/>
    <path id="Path_38" data-name="Path 38" d="M1087.658,199.634V192.12h4.587v.9h-3.535v2.234h3.144v.878h-3.144v2.6h3.806v.9Z" transform="translate(-841.967 -148.722)" fill="#262626"/>
  </g>
</svg>
